# xmcd CD database file
# Copyright (C) 1993-1998 Ti Kan
#
# Track frame offsets:
#  182
#  14172
#  26332
#  36435
#  49192
#  61652
#  74495
#  88962
#  103320
#  116245
#  128420
#  139355
#  151365
#  162067
#  172472
#  183745
#  196167
#  208447
#  219215
#  230127
#
# Disc length: 3238 seconds
#
# Revision: 1
# Processed by: cddbd v1.4b41PL1 Copyright (c) Steve Scherf et al.
# Submitted via: KiC 2.1 - (C) 1996-1998 Alwin Hoogerdijk
#
DISCID=390ca414
DTITLE=Jimmy Reed - Bright Lights, Big City (His Greatest Hits) - Charly Blues 
DTITLE=Masterworks Vol.17 
DYEAR=1900
DGENRE=
TTITLE0=You Don't Have To Go
TTITLE1=I Don't Go For That
TTITLE2=Aint That Lovin' You Baby
TTITLE3=Can't Stand To See You Go
TTITLE4=I Love You Baby
TTITLE5=You've Got Me Dizzy
TTITLE6=Honey, Where You Going
TTITLE7=Little Rain
TTITLE8=The Sun Is Shining
TTITLE9=Honest I Do
TTITLE10=Down In Virginia
TTITLE11=I'm Gonna Get My Baby
TTITLE12=Baby What You Want MeTo Do
TTITLE13=Found Love
TTITLE14=Hush Hush
TTITLE15=Big Boss Man
TTITLE16=Bright Lights, Big City
TTITLE17=Aw Shucks, Hush Your Mouth
TTITLE18=Good Lover
TTITLE19=Shame, Shame, Shame
EXTD=
EXTT0=
EXTT1=
EXTT2=
EXTT3=
EXTT4=
EXTT5=
EXTT6=
EXTT7=
EXTT8=
EXTT9=
EXTT10=
EXTT11=
EXTT12=
EXTT13=
EXTT14=
EXTT15=
EXTT16=
EXTT17=
EXTT18=
EXTT19=
PLAYORDER=
